<mxfile host="app.diagrams.net" modified="2024-02-23T07:27:09.652Z" agent="Mozilla/5.0 (Windows NT 10.0; Win64; x64) AppleWebKit/537.36 (KHTML, like Gecko) Chrome/121.0.0.0 Safari/537.36" etag="-ISscBUbVPOVk8XhODir" version="23.1.6" type="device" pages="2">
  <diagram name="TCPServerAndClient" id="rFa6JRQeXoHfP3vqnMjO">
    <mxGraphModel dx="1521" dy="4301" grid="0" gridSize="10" guides="1" tooltips="1" connect="1" arrows="1" fold="1" page="1" pageScale="1" pageWidth="827" pageHeight="1169" math="0" shadow="0">
      <root>
        <mxCell id="0" />
        <mxCell id="1" parent="0" />
        <mxCell id="qahjvbKbkuDnohyhexBv-2" value="TcpClient" style="rounded=0;whiteSpace=wrap;html=1;" vertex="1" parent="1">
          <mxGeometry x="-381" y="-2792" width="254" height="72" as="geometry" />
        </mxCell>
        <mxCell id="qahjvbKbkuDnohyhexBv-8" value="clientSocket&lt;br&gt;&amp;lt;Socket&amp;gt;" style="shape=parallelogram;perimeter=parallelogramPerimeter;whiteSpace=wrap;html=1;fixedSize=1;" vertex="1" parent="1">
          <mxGeometry x="-314" y="-2716" width="120" height="60" as="geometry" />
        </mxCell>
        <mxCell id="qahjvbKbkuDnohyhexBv-9" value="ipEndPoint&lt;br&gt;(&quot;127.0.0.1&quot;), 5000)&lt;br&gt;&amp;lt;IPEndPoint&amp;gt;" style="shape=parallelogram;perimeter=parallelogramPerimeter;whiteSpace=wrap;html=1;fixedSize=1;" vertex="1" parent="1">
          <mxGeometry x="-357" y="-2645" width="206" height="60" as="geometry" />
        </mxCell>
        <mxCell id="qahjvbKbkuDnohyhexBv-10" value="clientSocket Connect (ipEndPoint)" style="rounded=0;whiteSpace=wrap;html=1;" vertex="1" parent="1">
          <mxGeometry x="-375" y="-2574" width="242" height="60" as="geometry" />
        </mxCell>
        <mxCell id="qahjvbKbkuDnohyhexBv-11" value="sendData&lt;br&gt;&amp;lt;sting&amp;gt;&lt;br&gt;&quot;Hello, Server!&quot;" style="shape=parallelogram;perimeter=parallelogramPerimeter;whiteSpace=wrap;html=1;fixedSize=1;" vertex="1" parent="1">
          <mxGeometry x="-314" y="-2506" width="120" height="60" as="geometry" />
        </mxCell>
        <mxCell id="qahjvbKbkuDnohyhexBv-15" value="clientSocket Send (sendBuffer)" style="rounded=0;whiteSpace=wrap;html=1;" vertex="1" parent="1">
          <mxGeometry x="-376.5" y="-2308" width="242" height="60" as="geometry" />
        </mxCell>
        <mxCell id="qahjvbKbkuDnohyhexBv-60" style="edgeStyle=none;curved=1;rounded=0;orthogonalLoop=1;jettySize=auto;html=1;exitX=0;exitY=0.5;exitDx=0;exitDy=0;entryX=1;entryY=0.5;entryDx=0;entryDy=0;fontSize=12;startSize=8;endSize=8;" edge="1" parent="1" source="qahjvbKbkuDnohyhexBv-25" target="qahjvbKbkuDnohyhexBv-55">
          <mxGeometry relative="1" as="geometry" />
        </mxCell>
        <mxCell id="qahjvbKbkuDnohyhexBv-25" value="serverSocket Accept()" style="rounded=0;whiteSpace=wrap;html=1;" vertex="1" parent="1">
          <mxGeometry x="-661" y="-2570" width="212" height="60" as="geometry" />
        </mxCell>
        <mxCell id="qahjvbKbkuDnohyhexBv-43" value="" style="group" vertex="1" connectable="0" parent="1">
          <mxGeometry x="-331" y="-1806" width="247" height="94" as="geometry" />
        </mxCell>
        <mxCell id="qahjvbKbkuDnohyhexBv-39" value="" style="shape=parallelogram;perimeter=parallelogramPerimeter;whiteSpace=wrap;html=1;fixedSize=1;" vertex="1" parent="qahjvbKbkuDnohyhexBv-43">
          <mxGeometry x="8" y="12" width="239" height="60" as="geometry" />
        </mxCell>
        <mxCell id="qahjvbKbkuDnohyhexBv-40" value="" style="shape=parallelogram;perimeter=parallelogramPerimeter;whiteSpace=wrap;html=1;fixedSize=1;" vertex="1" parent="qahjvbKbkuDnohyhexBv-43">
          <mxGeometry x="4" y="6" width="239" height="60" as="geometry" />
        </mxCell>
        <mxCell id="qahjvbKbkuDnohyhexBv-41" value="receiveBuffer&lt;br&gt;&amp;lt;byte[1024]&amp;gt;" style="shape=parallelogram;perimeter=parallelogramPerimeter;whiteSpace=wrap;html=1;fixedSize=1;" vertex="1" parent="qahjvbKbkuDnohyhexBv-43">
          <mxGeometry width="239" height="60" as="geometry" />
        </mxCell>
        <mxCell id="qahjvbKbkuDnohyhexBv-42" value="" style="endArrow=none;dashed=1;html=1;dashPattern=1 3;strokeWidth=2;rounded=0;fontSize=12;startSize=8;endSize=8;" edge="1" parent="qahjvbKbkuDnohyhexBv-43">
          <mxGeometry width="50" height="50" relative="1" as="geometry">
            <mxPoint x="119.5" y="94" as="sourcePoint" />
            <mxPoint x="119" y="72" as="targetPoint" />
          </mxGeometry>
        </mxCell>
        <mxCell id="qahjvbKbkuDnohyhexBv-44" value="" style="group" vertex="1" connectable="0" parent="1">
          <mxGeometry x="-377.5" y="-2433" width="247" height="94" as="geometry" />
        </mxCell>
        <mxCell id="qahjvbKbkuDnohyhexBv-16" value="" style="shape=parallelogram;perimeter=parallelogramPerimeter;whiteSpace=wrap;html=1;fixedSize=1;" vertex="1" parent="qahjvbKbkuDnohyhexBv-44">
          <mxGeometry x="8" y="12" width="239" height="60" as="geometry" />
        </mxCell>
        <mxCell id="qahjvbKbkuDnohyhexBv-17" value="" style="shape=parallelogram;perimeter=parallelogramPerimeter;whiteSpace=wrap;html=1;fixedSize=1;" vertex="1" parent="qahjvbKbkuDnohyhexBv-44">
          <mxGeometry x="4" y="6" width="239" height="60" as="geometry" />
        </mxCell>
        <mxCell id="qahjvbKbkuDnohyhexBv-18" value="&#xa;&lt;span style=&quot;color: rgb(0, 0, 0); font-family: Helvetica; font-size: 12px; font-style: normal; font-variant-ligatures: normal; font-variant-caps: normal; font-weight: 400; letter-spacing: normal; orphans: 2; text-align: center; text-indent: 0px; text-transform: none; widows: 2; word-spacing: 0px; -webkit-text-stroke-width: 0px; background-color: rgb(255, 255, 255); text-decoration-thickness: initial; text-decoration-style: initial; text-decoration-color: initial; float: none; display: inline !important;&quot;&gt;sendBuffer&lt;/span&gt;&lt;br style=&quot;border-color: var(--border-color); color: rgb(0, 0, 0); font-family: Helvetica; font-size: 12px; font-style: normal; font-variant-ligatures: normal; font-variant-caps: normal; font-weight: 400; letter-spacing: normal; orphans: 2; text-align: center; text-indent: 0px; text-transform: none; widows: 2; word-spacing: 0px; -webkit-text-stroke-width: 0px; background-color: rgb(255, 255, 255); text-decoration-thickness: initial; text-decoration-style: initial; text-decoration-color: initial;&quot;&gt;&lt;span style=&quot;color: rgb(0, 0, 0); font-family: Helvetica; font-size: 12px; font-style: normal; font-variant-ligatures: normal; font-variant-caps: normal; font-weight: 400; letter-spacing: normal; orphans: 2; text-align: center; text-indent: 0px; text-transform: none; widows: 2; word-spacing: 0px; -webkit-text-stroke-width: 0px; background-color: rgb(255, 255, 255); text-decoration-thickness: initial; text-decoration-style: initial; text-decoration-color: initial; float: none; display: inline !important;&quot;&gt;Encoding.UTF8.GetBytes(sendData)&lt;/span&gt;&lt;br style=&quot;border-color: var(--border-color); color: rgb(0, 0, 0); font-family: Helvetica; font-size: 12px; font-style: normal; font-variant-ligatures: normal; font-variant-caps: normal; font-weight: 400; letter-spacing: normal; orphans: 2; text-align: center; text-indent: 0px; text-transform: none; widows: 2; word-spacing: 0px; -webkit-text-stroke-width: 0px; background-color: rgb(255, 255, 255); text-decoration-thickness: initial; text-decoration-style: initial; text-decoration-color: initial;&quot;&gt;&lt;span style=&quot;color: rgb(0, 0, 0); font-family: Helvetica; font-size: 12px; font-style: normal; font-variant-ligatures: normal; font-variant-caps: normal; font-weight: 400; letter-spacing: normal; orphans: 2; text-align: center; text-indent: 0px; text-transform: none; widows: 2; word-spacing: 0px; -webkit-text-stroke-width: 0px; background-color: rgb(255, 255, 255); text-decoration-thickness: initial; text-decoration-style: initial; text-decoration-color: initial; float: none; display: inline !important;&quot;&gt;&amp;lt;byte[]&amp;gt;&lt;/span&gt;&#xa;&#xa;" style="shape=parallelogram;perimeter=parallelogramPerimeter;whiteSpace=wrap;html=1;fixedSize=1;" vertex="1" parent="qahjvbKbkuDnohyhexBv-44">
          <mxGeometry width="239" height="60" as="geometry" />
        </mxCell>
        <mxCell id="qahjvbKbkuDnohyhexBv-24" value="" style="endArrow=none;dashed=1;html=1;dashPattern=1 3;strokeWidth=2;rounded=0;fontSize=12;startSize=8;endSize=8;" edge="1" parent="qahjvbKbkuDnohyhexBv-44">
          <mxGeometry width="50" height="50" relative="1" as="geometry">
            <mxPoint x="119.5" y="94" as="sourcePoint" />
            <mxPoint x="119" y="72" as="targetPoint" />
          </mxGeometry>
        </mxCell>
        <mxCell id="qahjvbKbkuDnohyhexBv-46" value="" style="group" vertex="1" connectable="0" parent="1">
          <mxGeometry x="-739" y="-2308" width="362.5" height="325" as="geometry" />
        </mxCell>
        <mxCell id="qahjvbKbkuDnohyhexBv-31" value="receiveBystes&lt;br&gt;clientSocket Receive(receiveBuffer)&lt;br&gt;&amp;lt;int&amp;gt;" style="shape=parallelogram;perimeter=parallelogramPerimeter;whiteSpace=wrap;html=1;fixedSize=1;" vertex="1" parent="qahjvbKbkuDnohyhexBv-46">
          <mxGeometry x="48" y="136" width="245" height="60" as="geometry" />
        </mxCell>
        <mxCell id="qahjvbKbkuDnohyhexBv-32" value="&lt;br&gt;&lt;span style=&quot;color: rgb(0, 0, 0); font-family: Helvetica; font-size: 12px; font-style: normal; font-variant-ligatures: normal; font-variant-caps: normal; font-weight: 400; letter-spacing: normal; orphans: 2; text-align: center; text-indent: 0px; text-transform: none; widows: 2; word-spacing: 0px; -webkit-text-stroke-width: 0px; background-color: rgb(255, 255, 255); text-decoration-thickness: initial; text-decoration-style: initial; text-decoration-color: initial; float: none; display: inline !important;&quot;&gt;receiveData&lt;/span&gt;&lt;br style=&quot;border-color: var(--border-color); color: rgb(0, 0, 0); font-family: Helvetica; font-size: 12px; font-style: normal; font-variant-ligatures: normal; font-variant-caps: normal; font-weight: 400; letter-spacing: normal; orphans: 2; text-align: center; text-indent: 0px; text-transform: none; widows: 2; word-spacing: 0px; -webkit-text-stroke-width: 0px; background-color: rgb(255, 255, 255); text-decoration-thickness: initial; text-decoration-style: initial; text-decoration-color: initial;&quot;&gt;&lt;span style=&quot;color: rgb(0, 0, 0); font-family: Helvetica; font-size: 12px; font-style: normal; font-variant-ligatures: normal; font-variant-caps: normal; font-weight: 400; letter-spacing: normal; orphans: 2; text-align: center; text-indent: 0px; text-transform: none; widows: 2; word-spacing: 0px; -webkit-text-stroke-width: 0px; background-color: rgb(255, 255, 255); text-decoration-thickness: initial; text-decoration-style: initial; text-decoration-color: initial; float: none; display: inline !important;&quot;&gt;Encoding.UTF8.GetString(reveiveBuffer, 0, receiveBytes)&lt;/span&gt;&lt;br style=&quot;border-color: var(--border-color); color: rgb(0, 0, 0); font-family: Helvetica; font-size: 12px; font-style: normal; font-variant-ligatures: normal; font-variant-caps: normal; font-weight: 400; letter-spacing: normal; orphans: 2; text-align: center; text-indent: 0px; text-transform: none; widows: 2; word-spacing: 0px; -webkit-text-stroke-width: 0px; background-color: rgb(255, 255, 255); text-decoration-thickness: initial; text-decoration-style: initial; text-decoration-color: initial;&quot;&gt;&lt;span style=&quot;color: rgb(0, 0, 0); font-family: Helvetica; font-size: 12px; font-style: normal; font-variant-ligatures: normal; font-variant-caps: normal; font-weight: 400; letter-spacing: normal; orphans: 2; text-align: center; text-indent: 0px; text-transform: none; widows: 2; word-spacing: 0px; -webkit-text-stroke-width: 0px; background-color: rgb(255, 255, 255); text-decoration-thickness: initial; text-decoration-style: initial; text-decoration-color: initial; float: none; display: inline !important;&quot;&gt;&amp;lt;byte[1024]&amp;gt;&lt;/span&gt;&lt;div&gt;&lt;br&gt;&lt;/div&gt;" style="shape=parallelogram;perimeter=parallelogramPerimeter;whiteSpace=wrap;html=1;fixedSize=1;" vertex="1" parent="qahjvbKbkuDnohyhexBv-46">
          <mxGeometry y="211" width="341" height="60" as="geometry" />
        </mxCell>
        <mxCell id="qahjvbKbkuDnohyhexBv-33" value="클라이언트로부터 받은 데이터: {receiveData}" style="text;html=1;align=center;verticalAlign=middle;whiteSpace=wrap;rounded=0;fontSize=16;" vertex="1" parent="qahjvbKbkuDnohyhexBv-46">
          <mxGeometry x="6.5" y="295" width="356" height="30" as="geometry" />
        </mxCell>
        <mxCell id="qahjvbKbkuDnohyhexBv-45" value="" style="group" vertex="1" connectable="0" parent="qahjvbKbkuDnohyhexBv-46">
          <mxGeometry x="49" width="249" height="126" as="geometry" />
        </mxCell>
        <mxCell id="qahjvbKbkuDnohyhexBv-30" value="1024" style="shape=parallelogram;perimeter=parallelogramPerimeter;whiteSpace=wrap;html=1;fixedSize=1;" vertex="1" parent="qahjvbKbkuDnohyhexBv-45">
          <mxGeometry y="66" width="239" height="60" as="geometry" />
        </mxCell>
        <mxCell id="qahjvbKbkuDnohyhexBv-26" value="" style="shape=parallelogram;perimeter=parallelogramPerimeter;whiteSpace=wrap;html=1;fixedSize=1;" vertex="1" parent="qahjvbKbkuDnohyhexBv-45">
          <mxGeometry x="10" y="12" width="239" height="60" as="geometry" />
        </mxCell>
        <mxCell id="qahjvbKbkuDnohyhexBv-27" value="" style="shape=parallelogram;perimeter=parallelogramPerimeter;whiteSpace=wrap;html=1;fixedSize=1;" vertex="1" parent="qahjvbKbkuDnohyhexBv-45">
          <mxGeometry x="6" y="6" width="239" height="60" as="geometry" />
        </mxCell>
        <mxCell id="qahjvbKbkuDnohyhexBv-28" value="&lt;br&gt;&lt;span style=&quot;color: rgb(0, 0, 0); font-family: Helvetica; font-size: 12px; font-style: normal; font-variant-ligatures: normal; font-variant-caps: normal; font-weight: 400; letter-spacing: normal; orphans: 2; text-align: center; text-indent: 0px; text-transform: none; widows: 2; word-spacing: 0px; -webkit-text-stroke-width: 0px; background-color: rgb(255, 255, 255); text-decoration-thickness: initial; text-decoration-style: initial; text-decoration-color: initial; float: none; display: inline !important;&quot;&gt;receiveBuffer&lt;/span&gt;&lt;br style=&quot;border-color: var(--border-color); color: rgb(0, 0, 0); font-family: Helvetica; font-size: 12px; font-style: normal; font-variant-ligatures: normal; font-variant-caps: normal; font-weight: 400; letter-spacing: normal; orphans: 2; text-align: center; text-indent: 0px; text-transform: none; widows: 2; word-spacing: 0px; -webkit-text-stroke-width: 0px; background-color: rgb(255, 255, 255); text-decoration-thickness: initial; text-decoration-style: initial; text-decoration-color: initial;&quot;&gt;&lt;span style=&quot;color: rgb(0, 0, 0); font-family: Helvetica; font-size: 12px; font-style: normal; font-variant-ligatures: normal; font-variant-caps: normal; font-weight: 400; letter-spacing: normal; orphans: 2; text-align: center; text-indent: 0px; text-transform: none; widows: 2; word-spacing: 0px; -webkit-text-stroke-width: 0px; background-color: rgb(255, 255, 255); text-decoration-thickness: initial; text-decoration-style: initial; text-decoration-color: initial; float: none; display: inline !important;&quot;&gt;Encoding.UTF8.GetBytes(sendData)&lt;/span&gt;&lt;br style=&quot;border-color: var(--border-color); color: rgb(0, 0, 0); font-family: Helvetica; font-size: 12px; font-style: normal; font-variant-ligatures: normal; font-variant-caps: normal; font-weight: 400; letter-spacing: normal; orphans: 2; text-align: center; text-indent: 0px; text-transform: none; widows: 2; word-spacing: 0px; -webkit-text-stroke-width: 0px; background-color: rgb(255, 255, 255); text-decoration-thickness: initial; text-decoration-style: initial; text-decoration-color: initial;&quot;&gt;&lt;span style=&quot;color: rgb(0, 0, 0); font-family: Helvetica; font-size: 12px; font-style: normal; font-variant-ligatures: normal; font-variant-caps: normal; font-weight: 400; letter-spacing: normal; orphans: 2; text-align: center; text-indent: 0px; text-transform: none; widows: 2; word-spacing: 0px; -webkit-text-stroke-width: 0px; background-color: rgb(255, 255, 255); text-decoration-thickness: initial; text-decoration-style: initial; text-decoration-color: initial; float: none; display: inline !important;&quot;&gt;&amp;lt;byte[1024]&amp;gt;&lt;/span&gt;&lt;div&gt;&lt;br/&gt;&lt;/div&gt;" style="shape=parallelogram;perimeter=parallelogramPerimeter;whiteSpace=wrap;html=1;fixedSize=1;" vertex="1" parent="qahjvbKbkuDnohyhexBv-45">
          <mxGeometry x="2" width="239" height="60" as="geometry" />
        </mxCell>
        <mxCell id="qahjvbKbkuDnohyhexBv-29" value="" style="endArrow=none;dashed=1;html=1;dashPattern=1 3;strokeWidth=2;rounded=0;fontSize=12;startSize=8;endSize=8;" edge="1" parent="qahjvbKbkuDnohyhexBv-45">
          <mxGeometry width="50" height="50" relative="1" as="geometry">
            <mxPoint x="121" y="84" as="sourcePoint" />
            <mxPoint x="121" y="60" as="targetPoint" />
            <Array as="points">
              <mxPoint x="121" y="66" />
            </Array>
          </mxGeometry>
        </mxCell>
        <mxCell id="qahjvbKbkuDnohyhexBv-47" value="" style="group" vertex="1" connectable="0" parent="1">
          <mxGeometry x="-741.5" y="-3102" width="356" height="443" as="geometry" />
        </mxCell>
        <mxCell id="qahjvbKbkuDnohyhexBv-1" value="TcpServer" style="rounded=0;whiteSpace=wrap;html=1;" vertex="1" parent="qahjvbKbkuDnohyhexBv-47">
          <mxGeometry x="85.5" width="185" height="67" as="geometry" />
        </mxCell>
        <mxCell id="qahjvbKbkuDnohyhexBv-3" value="serverSocket&lt;br&gt;&amp;lt;Socket&amp;gt;" style="shape=parallelogram;perimeter=parallelogramPerimeter;whiteSpace=wrap;html=1;fixedSize=1;" vertex="1" parent="qahjvbKbkuDnohyhexBv-47">
          <mxGeometry x="118" y="80" width="120" height="60" as="geometry" />
        </mxCell>
        <mxCell id="qahjvbKbkuDnohyhexBv-4" value="ipEndPoint&lt;br&gt;(IPAddress.Any, 5000)&lt;br&gt;&amp;lt;IPEndPoint&amp;gt;" style="shape=parallelogram;perimeter=parallelogramPerimeter;whiteSpace=wrap;html=1;fixedSize=1;" vertex="1" parent="qahjvbKbkuDnohyhexBv-47">
          <mxGeometry x="75" y="158" width="206" height="60" as="geometry" />
        </mxCell>
        <mxCell id="qahjvbKbkuDnohyhexBv-5" value="serverSocket Bind (ipEndPoint)" style="rounded=0;whiteSpace=wrap;html=1;" vertex="1" parent="qahjvbKbkuDnohyhexBv-47">
          <mxGeometry x="57" y="234" width="242" height="60" as="geometry" />
        </mxCell>
        <mxCell id="qahjvbKbkuDnohyhexBv-6" value="serverSocket Listen (ipEndPoint)" style="rounded=0;whiteSpace=wrap;html=1;" vertex="1" parent="qahjvbKbkuDnohyhexBv-47">
          <mxGeometry x="57" y="310" width="242" height="60" as="geometry" />
        </mxCell>
        <mxCell id="qahjvbKbkuDnohyhexBv-7" style="edgeStyle=none;curved=1;rounded=0;orthogonalLoop=1;jettySize=auto;html=1;exitX=0.5;exitY=1;exitDx=0;exitDy=0;fontSize=12;startSize=8;endSize=8;" edge="1" parent="qahjvbKbkuDnohyhexBv-47" source="qahjvbKbkuDnohyhexBv-3" target="qahjvbKbkuDnohyhexBv-3">
          <mxGeometry relative="1" as="geometry" />
        </mxCell>
        <mxCell id="qahjvbKbkuDnohyhexBv-34" value="서버가 시작되었습니다.&lt;br&gt;클라이언트 연결을 기다리고 있습니다." style="text;html=1;align=center;verticalAlign=middle;whiteSpace=wrap;rounded=0;fontSize=16;" vertex="1" parent="qahjvbKbkuDnohyhexBv-47">
          <mxGeometry y="389" width="356" height="54" as="geometry" />
        </mxCell>
        <mxCell id="qahjvbKbkuDnohyhexBv-48" value="sendData&lt;br&gt;&amp;lt;sting&amp;gt;&lt;br&gt;&quot;Hello, Server!&quot;" style="shape=parallelogram;perimeter=parallelogramPerimeter;whiteSpace=wrap;html=1;fixedSize=1;" vertex="1" parent="1">
          <mxGeometry x="-633" y="-1977" width="120" height="60" as="geometry" />
        </mxCell>
        <mxCell id="qahjvbKbkuDnohyhexBv-49" value="" style="group" vertex="1" connectable="0" parent="1">
          <mxGeometry x="-699" y="-1904" width="247" height="94" as="geometry" />
        </mxCell>
        <mxCell id="qahjvbKbkuDnohyhexBv-50" value="" style="shape=parallelogram;perimeter=parallelogramPerimeter;whiteSpace=wrap;html=1;fixedSize=1;" vertex="1" parent="qahjvbKbkuDnohyhexBv-49">
          <mxGeometry x="8" y="12" width="239" height="60" as="geometry" />
        </mxCell>
        <mxCell id="qahjvbKbkuDnohyhexBv-51" value="" style="shape=parallelogram;perimeter=parallelogramPerimeter;whiteSpace=wrap;html=1;fixedSize=1;" vertex="1" parent="qahjvbKbkuDnohyhexBv-49">
          <mxGeometry x="4" y="6" width="239" height="60" as="geometry" />
        </mxCell>
        <mxCell id="qahjvbKbkuDnohyhexBv-52" value="sendBuffer&lt;br&gt;Encoding.UTF8.GetBytes(sendData)&lt;br&gt;&amp;lt;byte[]&amp;gt;" style="shape=parallelogram;perimeter=parallelogramPerimeter;whiteSpace=wrap;html=1;fixedSize=1;" vertex="1" parent="qahjvbKbkuDnohyhexBv-49">
          <mxGeometry width="239" height="60" as="geometry" />
        </mxCell>
        <mxCell id="qahjvbKbkuDnohyhexBv-53" value="" style="endArrow=none;dashed=1;html=1;dashPattern=1 3;strokeWidth=2;rounded=0;fontSize=12;startSize=8;endSize=8;" edge="1" parent="qahjvbKbkuDnohyhexBv-49">
          <mxGeometry width="50" height="50" relative="1" as="geometry">
            <mxPoint x="119.5" y="94" as="sourcePoint" />
            <mxPoint x="119" y="72" as="targetPoint" />
          </mxGeometry>
        </mxCell>
        <mxCell id="qahjvbKbkuDnohyhexBv-54" value="clientSocket Send (sendBuffer)" style="rounded=0;whiteSpace=wrap;html=1;" vertex="1" parent="1">
          <mxGeometry x="-694" y="-1795" width="242" height="60" as="geometry" />
        </mxCell>
        <mxCell id="qahjvbKbkuDnohyhexBv-55" value="clientSocket&lt;br&gt;&amp;lt;Socket&amp;gt;" style="shape=parallelogram;perimeter=parallelogramPerimeter;whiteSpace=wrap;html=1;fixedSize=1;" vertex="1" parent="1">
          <mxGeometry x="-796" y="-2570" width="120" height="60" as="geometry" />
        </mxCell>
        <mxCell id="qahjvbKbkuDnohyhexBv-61" value="clientSocket Close()" style="rounded=0;whiteSpace=wrap;html=1;" vertex="1" parent="1">
          <mxGeometry x="-694" y="-1698" width="242" height="60" as="geometry" />
        </mxCell>
        <mxCell id="qahjvbKbkuDnohyhexBv-62" value="severSocket Close()" style="rounded=0;whiteSpace=wrap;html=1;" vertex="1" parent="1">
          <mxGeometry x="-691" y="-1601" width="242" height="60" as="geometry" />
        </mxCell>
        <mxCell id="qahjvbKbkuDnohyhexBv-63" value="서버가 종료되었습니다." style="text;html=1;align=center;verticalAlign=middle;whiteSpace=wrap;rounded=0;fontSize=16;" vertex="1" parent="1">
          <mxGeometry x="-743.5" y="-1504" width="356" height="30" as="geometry" />
        </mxCell>
        <mxCell id="qahjvbKbkuDnohyhexBv-64" value="receiveBystes&lt;br&gt;clientSocket Receive(receiveBuffer)&lt;br&gt;&amp;lt;int&amp;gt;" style="shape=parallelogram;perimeter=parallelogramPerimeter;whiteSpace=wrap;html=1;fixedSize=1;" vertex="1" parent="1">
          <mxGeometry x="-332" y="-1694" width="245" height="60" as="geometry" />
        </mxCell>
        <mxCell id="qahjvbKbkuDnohyhexBv-75" value="&lt;br&gt;&lt;span style=&quot;color: rgb(0, 0, 0); font-family: Helvetica; font-size: 12px; font-style: normal; font-variant-ligatures: normal; font-variant-caps: normal; font-weight: 400; letter-spacing: normal; orphans: 2; text-align: center; text-indent: 0px; text-transform: none; widows: 2; word-spacing: 0px; -webkit-text-stroke-width: 0px; background-color: rgb(255, 255, 255); text-decoration-thickness: initial; text-decoration-style: initial; text-decoration-color: initial; float: none; display: inline !important;&quot;&gt;receiveData&lt;/span&gt;&lt;br style=&quot;border-color: var(--border-color); color: rgb(0, 0, 0); font-family: Helvetica; font-size: 12px; font-style: normal; font-variant-ligatures: normal; font-variant-caps: normal; font-weight: 400; letter-spacing: normal; orphans: 2; text-align: center; text-indent: 0px; text-transform: none; widows: 2; word-spacing: 0px; -webkit-text-stroke-width: 0px; background-color: rgb(255, 255, 255); text-decoration-thickness: initial; text-decoration-style: initial; text-decoration-color: initial;&quot;&gt;&lt;span style=&quot;color: rgb(0, 0, 0); font-family: Helvetica; font-size: 12px; font-style: normal; font-variant-ligatures: normal; font-variant-caps: normal; font-weight: 400; letter-spacing: normal; orphans: 2; text-align: center; text-indent: 0px; text-transform: none; widows: 2; word-spacing: 0px; -webkit-text-stroke-width: 0px; background-color: rgb(255, 255, 255); text-decoration-thickness: initial; text-decoration-style: initial; text-decoration-color: initial; float: none; display: inline !important;&quot;&gt;Encoding.UTF8.GetString(reveiveBuffer, 0, receiveBytes)&lt;/span&gt;&lt;br style=&quot;border-color: var(--border-color); color: rgb(0, 0, 0); font-family: Helvetica; font-size: 12px; font-style: normal; font-variant-ligatures: normal; font-variant-caps: normal; font-weight: 400; letter-spacing: normal; orphans: 2; text-align: center; text-indent: 0px; text-transform: none; widows: 2; word-spacing: 0px; -webkit-text-stroke-width: 0px; background-color: rgb(255, 255, 255); text-decoration-thickness: initial; text-decoration-style: initial; text-decoration-color: initial;&quot;&gt;&lt;span style=&quot;color: rgb(0, 0, 0); font-family: Helvetica; font-size: 12px; font-style: normal; font-variant-ligatures: normal; font-variant-caps: normal; font-weight: 400; letter-spacing: normal; orphans: 2; text-align: center; text-indent: 0px; text-transform: none; widows: 2; word-spacing: 0px; -webkit-text-stroke-width: 0px; background-color: rgb(255, 255, 255); text-decoration-thickness: initial; text-decoration-style: initial; text-decoration-color: initial; float: none; display: inline !important;&quot;&gt;&amp;lt;byte[1024]&amp;gt;&lt;/span&gt;&lt;div&gt;&lt;br&gt;&lt;/div&gt;" style="shape=parallelogram;perimeter=parallelogramPerimeter;whiteSpace=wrap;html=1;fixedSize=1;" vertex="1" parent="1">
          <mxGeometry x="-386" y="-1602" width="341" height="60" as="geometry" />
        </mxCell>
        <mxCell id="qahjvbKbkuDnohyhexBv-76" value="서버로부터 받은 데이터: {receiveData}" style="text;html=1;align=center;verticalAlign=middle;whiteSpace=wrap;rounded=0;fontSize=16;" vertex="1" parent="1">
          <mxGeometry x="-387.5" y="-1494" width="356" height="30" as="geometry" />
        </mxCell>
        <mxCell id="qahjvbKbkuDnohyhexBv-77" value="clientSocket Close()" style="rounded=0;whiteSpace=wrap;html=1;" vertex="1" parent="1">
          <mxGeometry x="-321" y="-1449" width="242" height="60" as="geometry" />
        </mxCell>
      </root>
    </mxGraphModel>
  </diagram>
  <diagram id="TzO9YMBNnM7rhV5b7go9" name="GameServerAndUnity3DClient">
    <mxGraphModel dx="694" dy="1963" grid="0" gridSize="10" guides="1" tooltips="1" connect="1" arrows="1" fold="1" page="1" pageScale="1" pageWidth="827" pageHeight="1169" math="0" shadow="0">
      <root>
        <mxCell id="0" />
        <mxCell id="1" parent="0" />
        <mxCell id="oWj8xhbG_PQfHmYzqBTx-1" value="socketServer&lt;br&gt;&amp;lt;GameServer&lt;span style=&quot;font-size: 10px;&quot;&gt;&amp;gt;&lt;/span&gt;" style="shape=parallelogram;perimeter=parallelogramPerimeter;whiteSpace=wrap;html=1;fixedSize=1;" vertex="1" parent="1">
          <mxGeometry x="32.97" y="-765" width="120" height="60" as="geometry" />
        </mxCell>
        <mxCell id="oWj8xhbG_PQfHmYzqBTx-13" value="socketServer.Init()//소켓을 준비하고, 기기의 IP를 받아온다" style="rounded=0;whiteSpace=wrap;html=1;" vertex="1" parent="1">
          <mxGeometry x="32.94" y="-260" width="404.06" height="60" as="geometry" />
        </mxCell>
        <mxCell id="oWj8xhbG_PQfHmYzqBTx-14" value="socketServer.Bind(15000, 10)//포트를 지정하고 바인딩하고 리스닝한다." style="rounded=0;whiteSpace=wrap;html=1;" vertex="1" parent="1">
          <mxGeometry x="31" y="-190" width="404.06" height="60" as="geometry" />
        </mxCell>
        <mxCell id="oWj8xhbG_PQfHmYzqBTx-15" value="MultiClientAcceptCallBack &amp;lt;ThreaStart&amp;gt;&lt;br&gt;대기수와 접속한 클라수가 같다면, 추가로 어셉트를 생성한다." style="shape=process;whiteSpace=wrap;html=1;backgroundOutline=1;" vertex="1" parent="1">
          <mxGeometry x="25.06" y="-57" width="425.94" height="60" as="geometry" />
        </mxCell>
        <mxCell id="oWj8xhbG_PQfHmYzqBTx-16" value="AcceptCallBack&amp;lt;ThreaStart&amp;gt;" style="shape=process;whiteSpace=wrap;html=1;backgroundOutline=1;" vertex="1" parent="1">
          <mxGeometry x="82" y="87" width="402.06" height="60" as="geometry" />
        </mxCell>
        <mxCell id="oWj8xhbG_PQfHmYzqBTx-17" value="주석: 다중클라이언트를 받기위한 어셉트를 대기하는 스레드를 별로 생성한다.(메인 루프는 메세지의 입력을 대기한다.)" style="text;html=1;align=center;verticalAlign=middle;whiteSpace=wrap;rounded=0;fontSize=16;" vertex="1" parent="1">
          <mxGeometry x="22" y="-113" width="458.1" height="30" as="geometry" />
        </mxCell>
        <mxCell id="oWj8xhbG_PQfHmYzqBTx-18" value="m_listSocketInfo.Add(socketInfo); // 전화를 받아 리스트에 기록한다." style="rounded=0;whiteSpace=wrap;html=1;" vertex="1" parent="1">
          <mxGeometry x="167" y="153" width="424" height="55" as="geometry" />
        </mxCell>
        <mxCell id="oWj8xhbG_PQfHmYzqBTx-19" value="BroadCastMassage(연결수전송) // 모든 연결된 클라이언트에게 연결된 클라이언트의 수가 늘어난것을 알린다." style="rounded=0;whiteSpace=wrap;html=1;" vertex="1" parent="1">
          <mxGeometry x="170" y="224" width="424" height="55" as="geometry" />
        </mxCell>
        <mxCell id="oWj8xhbG_PQfHmYzqBTx-20" value="" style="group" vertex="1" connectable="0" parent="1">
          <mxGeometry x="65" y="-721" width="436" height="288" as="geometry" />
        </mxCell>
        <mxCell id="oWj8xhbG_PQfHmYzqBTx-2" value="m_socketServer&amp;lt;Socket&amp;gt;" style="shape=parallelogram;perimeter=parallelogramPerimeter;whiteSpace=wrap;html=1;fixedSize=1;" vertex="1" parent="oWj8xhbG_PQfHmYzqBTx-20">
          <mxGeometry x="126.88840262582056" width="309.11159737417944" height="36.37894736842105" as="geometry" />
        </mxCell>
        <mxCell id="oWj8xhbG_PQfHmYzqBTx-3" value="m_iPAddress&amp;lt;IPAddress&amp;gt;" style="shape=parallelogram;perimeter=parallelogramPerimeter;whiteSpace=wrap;html=1;fixedSize=1;" vertex="1" parent="oWj8xhbG_PQfHmYzqBTx-20">
          <mxGeometry x="104.945295404814" y="40.623157894736835" width="309.11159737417944" height="36.37894736842105" as="geometry" />
        </mxCell>
        <mxCell id="oWj8xhbG_PQfHmYzqBTx-4" value="m_nPort&amp;lt;int&amp;gt;" style="shape=parallelogram;perimeter=parallelogramPerimeter;whiteSpace=wrap;html=1;fixedSize=1;" vertex="1" parent="oWj8xhbG_PQfHmYzqBTx-20">
          <mxGeometry x="81.09409190371991" y="81.24631578947367" width="309.11159737417944" height="36.37894736842105" as="geometry" />
        </mxCell>
        <mxCell id="oWj8xhbG_PQfHmYzqBTx-5" value="m_nPort&amp;lt;int&amp;gt;" style="shape=parallelogram;perimeter=parallelogramPerimeter;whiteSpace=wrap;html=1;fixedSize=1;" vertex="1" parent="oWj8xhbG_PQfHmYzqBTx-20">
          <mxGeometry x="62.9671772428884" y="120.05052631578951" width="309.11159737417944" height="36.37894736842105" as="geometry" />
        </mxCell>
        <mxCell id="oWj8xhbG_PQfHmYzqBTx-6" value="m_isStart&amp;lt;bool&amp;gt;" style="shape=parallelogram;perimeter=parallelogramPerimeter;whiteSpace=wrap;html=1;fixedSize=1;" vertex="1" parent="oWj8xhbG_PQfHmYzqBTx-20">
          <mxGeometry x="41.97811816192561" y="163.09894736842102" width="309.11159737417944" height="36.37894736842105" as="geometry" />
        </mxCell>
        <mxCell id="oWj8xhbG_PQfHmYzqBTx-7" value="m_nAcepptCount&amp;lt;int&amp;gt;(대기수)" style="shape=parallelogram;perimeter=parallelogramPerimeter;whiteSpace=wrap;html=1;fixedSize=1;" vertex="1" parent="oWj8xhbG_PQfHmYzqBTx-20">
          <mxGeometry x="21.943107221006557" y="206.14736842105265" width="309.11159737417944" height="36.37894736842105" as="geometry" />
        </mxCell>
        <mxCell id="oWj8xhbG_PQfHmYzqBTx-8" value="m_listSocketInfo - List&amp;lt;SocketInfo&amp;gt;" style="shape=parallelogram;perimeter=parallelogramPerimeter;whiteSpace=wrap;html=1;fixedSize=1;" vertex="1" parent="oWj8xhbG_PQfHmYzqBTx-20">
          <mxGeometry y="251.6210526315789" width="309.11159737417944" height="36.37894736842105" as="geometry" />
        </mxCell>
        <mxCell id="oWj8xhbG_PQfHmYzqBTx-21" value="" style="group" vertex="1" connectable="0" parent="1">
          <mxGeometry x="328" y="-421.9989473684211" width="352.1115973741794" height="114.378947368421" as="geometry" />
        </mxCell>
        <mxCell id="oWj8xhbG_PQfHmYzqBTx-10" value="m_buffer &amp;lt;byte[]&amp;gt;" style="shape=parallelogram;perimeter=parallelogramPerimeter;whiteSpace=wrap;html=1;fixedSize=1;" vertex="1" parent="oWj8xhbG_PQfHmYzqBTx-21">
          <mxGeometry x="43" width="309.11159737417944" height="36.37894736842105" as="geometry" />
        </mxCell>
        <mxCell id="oWj8xhbG_PQfHmYzqBTx-11" value="m_isConnect&amp;lt;bool&amp;gt;(클라이언트의 연결)" style="shape=parallelogram;perimeter=parallelogramPerimeter;whiteSpace=wrap;html=1;fixedSize=1;" vertex="1" parent="oWj8xhbG_PQfHmYzqBTx-21">
          <mxGeometry x="21" y="39" width="309.11159737417944" height="36.37894736842105" as="geometry" />
        </mxCell>
        <mxCell id="oWj8xhbG_PQfHmYzqBTx-12" value="m_socket&amp;lt;Socket&amp;gt;(연결된 클라이언트의 소켓)" style="shape=parallelogram;perimeter=parallelogramPerimeter;whiteSpace=wrap;html=1;fixedSize=1;" vertex="1" parent="oWj8xhbG_PQfHmYzqBTx-21">
          <mxGeometry y="78" width="309.11159737417944" height="36.37894736842105" as="geometry" />
        </mxCell>
        <mxCell id="XPfUkysaT3e1uG_BJNuF-1" value="클라이언트가 보낸 데이터를 연결이 끓어질때까지,&lt;br&gt;전송받은 데이터를 접속된 모든 클라이언트들에게 전송한다." style="shape=process;whiteSpace=wrap;html=1;backgroundOutline=1;" vertex="1" parent="1">
          <mxGeometry x="103.06" y="301" width="513.94" height="60" as="geometry" />
        </mxCell>
        <mxCell id="XPfUkysaT3e1uG_BJNuF-2" value="m_listSocketInfo.Remove(socketInfo); //연결된 소켓을 리스트에서 지운다." style="rounded=0;whiteSpace=wrap;html=1;" vertex="1" parent="1">
          <mxGeometry x="157" y="374" width="424" height="55" as="geometry" />
        </mxCell>
        <mxCell id="XPfUkysaT3e1uG_BJNuF-3" value="BroadCastMassage(연결된 클라수) // 모든 연결된 클라이언트에게 연결된 클라이언트의 수가 줄어든것을 알린다." style="rounded=0;whiteSpace=wrap;html=1;" vertex="1" parent="1">
          <mxGeometry x="144" y="442" width="424" height="55" as="geometry" />
        </mxCell>
        <mxCell id="XPfUkysaT3e1uG_BJNuF-4" value="주석: 접속된 클라이언트에 전송된 데이터를 다른클라이언트들에게 알린다. (클라이언트마다 스레드를 가진다.)" style="text;html=1;align=center;verticalAlign=middle;whiteSpace=wrap;rounded=0;fontSize=16;" vertex="1" parent="1">
          <mxGeometry x="25.06" y="19" width="458.1" height="30" as="geometry" />
        </mxCell>
        <mxCell id="bPDUGy4rBqTIt8pNCZx6-1" value="m_cGameClient&lt;br&gt;&amp;lt;GameClient&amp;gt;" style="shape=parallelogram;perimeter=parallelogramPerimeter;whiteSpace=wrap;html=1;fixedSize=1;" vertex="1" parent="1">
          <mxGeometry x="76" y="671" width="120" height="60" as="geometry" />
        </mxCell>
        <mxCell id="bPDUGy4rBqTIt8pNCZx6-2" value="MainLoop: 콘솔창에 덱스트를 입력하면 다른클라이언트들에게 전송한다." style="shape=process;whiteSpace=wrap;html=1;backgroundOutline=1;" vertex="1" parent="1">
          <mxGeometry x="72" y="532" width="513.94" height="60" as="geometry" />
        </mxCell>
        <mxCell id="bPDUGy4rBqTIt8pNCZx6-3" value="m_cGameClient.Connect()" style="rounded=0;whiteSpace=wrap;html=1;" vertex="1" parent="1">
          <mxGeometry x="65" y="750" width="390" height="60" as="geometry" />
        </mxCell>
        <mxCell id="bPDUGy4rBqTIt8pNCZx6-4" value="ReceivedCallBack&amp;lt;threadStart&amp;gt;" style="shape=process;whiteSpace=wrap;html=1;backgroundOutline=1;" vertex="1" parent="1">
          <mxGeometry x="78" y="829" width="368" height="60" as="geometry" />
        </mxCell>
      </root>
    </mxGraphModel>
  </diagram>
</mxfile>
